HIERARCHY
ROOT Hips
{
  OFFSET -61.0707 97.6039 55.6267
  CHANNELS 6 Xposition Yposition Zposition Zrotation Xrotation Yrotation
  JOINT ToSpine
  {
    OFFSET -2.69724 7.43032 -0.144315
    CHANNELS 3 Zrotation Xrotation Yrotation
    JOINT Spine
    {
      OFFSET -0.0310711 10.7595 1.96963
      CHANNELS 3 Zrotation Xrotation Yrotation
      JOINT Spine1
      {
        OFFSET 13.1342 3.43533 0.764692
        CHANNELS 3 Zrotation Xrotation Yrotation
        JOINT Neck
        {
          OFFSET 29.8703 7.82586 -0.130764
          CHANNELS 3 Zrotation Xrotation Yrotation
          JOINT Head
          {
            OFFSET 9.52751 0.295786 -0.907742
            CHANNELS 3 Zrotation Xrotation Yrotation
            End Site
            {
              OFFSET 16.4037 0.713936 2.7358
            }
          }
        }
        JOINT LeftShoulder
        {
          OFFSET 27.5574 4.95586 2.47156
          CHANNELS 3 Zrotation Xrotation Yrotation
          JOINT LeftArm
          {
            OFFSET 1.20734 -0.998971 20.1238
            CHANNELS 3 Zrotation Xrotation Yrotation
            JOINT LeftForeArm
            {
              OFFSET 26.8049 -0.0536703 -0.155908
              CHANNELS 3 Zrotation Xrotation Yrotation
              JOINT LeftHand
              {
                OFFSET 26.6817 0 0.320147
                CHANNELS 3 Zrotation Xrotation Yrotation
                End Site
                {
                  OFFSET 18.6119 0 0.382219
                }
              }
            }
          }
        }
        JOINT RightShoulder
        {
          OFFSET 27.5927 4.71444 -2.65209
          CHANNELS 3 Zrotation Xrotation Yrotation
          JOINT RightArm
          {
            OFFSET 2.83739 -1.17114 -18.7564
            CHANNELS 3 Zrotation Xrotation Yrotation
            JOINT RightForeArm
            {
              OFFSET 28.839 -0.0548439 1.22491
              CHANNELS 3 Zrotation Xrotation Yrotation
              JOINT RightHand
              {
                OFFSET 26.5114 0 -0.101894
                CHANNELS 3 Zrotation Xrotation Yrotation
                End Site
                {
                  OFFSET 18.2168 0 0
                }
              }
            }
          }
        }
      }
    }
  }
  JOINT LeftUpLeg
  {
    OFFSET -4.76168 -1.9167 -10.2353
    CHANNELS 3 Zrotation Xrotation Yrotation
    JOINT LeftLeg
    {
      OFFSET 2.55951 -42.0585 -8.02213
      CHANNELS 3 Zrotation Xrotation Yrotation
      JOINT LeftFoot
      {
        OFFSET 3.16357 -42.5282 -3.95426
        CHANNELS 3 Zrotation Xrotation Yrotation
        JOINT LeftToeBase
        {
          OFFSET 0.346054 -6.02161 12.8035
          CHANNELS 3 Zrotation Xrotation Yrotation
          End Site
          {
            OFFSET 0.134235 -1.35082 5.13018
          }
        }
      }
    }
  }
  JOINT RightUpLeg
  {
    OFFSET -4.94151 -1.41743 10.6446
    CHANNELS 3 Zrotation Xrotation Yrotation
    JOINT RightLeg
    {
      OFFSET -2.56294 -42.0364 -7.94377
      CHANNELS 3 Zrotation Xrotation Yrotation
      JOINT RightFoot
      {
        OFFSET -3.0952 -42.555 -4.02241
        CHANNELS 3 Zrotation Xrotation Yrotation
        JOINT RightToeBase
        {
          OFFSET -0.0828122 -6.13587 12.8035
          CHANNELS 3 Zrotation Xrotation Yrotation
          End Site
          {
            OFFSET -0.131328 -1.35082 5.13018
          }
        }
      }
    }
  }
}
MOTION
Frames:	13
Frame Time:	0.00833333
-58.7543 97.5257 54.1946 0.350068 -70.2675 -89.4612 -70.1915 0 88.8779 67.3008 70.1719 21.4459 4.01497 20.7183 2.45046 -159.069 21.2626 178.909 -164.647 61.0187 -169.819 -0.2377 -15.3978 -35.3604 -67.1939 44.6389 -91.3592 8.55201 18.8603 -27.603 0.420957 0.000575449 0.35866 -1.82809 6.25917 43.7257 -71.0705 -34.6073 93.2978 0.719684 -14.9158 22.2313 0.58676 0.000331457 0.0646658 -55.6516 4.4051 99.9386 -1.02238 19.7356 -11.5013 4.10393 -4.95946 -0.830331 1.25105 -3.02549 0.793085 -55.5586 -3.51672 80.337 1.22675 16.1373 5.08103 -5.94754 -4.0774 1.02336 -0.268227 -2.31925 3.7316 
-58.7631 97.5346 54.1994 0.372236 -70.2595 -89.419 -70.1915 0 88.8779 67.3643 70.1474 21.4262 4.01588 20.7032 2.39653 -159.195 21.3136 178.832 -164.355 61.052 -170.341 -0.226705 -15.3635 -35.3112 -66.9805 44.6488 -91.4826 8.52759 18.6868 -27.6466 0.420957 0.000575449 0.35866 -1.83552 6.26947 43.7921 -71.18 -34.589 93.2317 0.729223 -15.0029 22.2171 0.58676 0.000331457 0.0646658 -55.5979 4.46658 99.9734 -1.06129 19.8334 -11.5689 3.91654 -4.99793 -0.816009 1.21689 -3.00177 0.933733 -55.5553 -3.50362 80.3449 1.22474 16.1314 4.92184 -5.84896 -4.14506 1.01588 -0.331967 -2.17328 4.03201 
-58.7727 97.5436 54.2044 0.387152 -70.2522 -89.3868 -70.1915 0 88.8779 67.4219 70.1276 21.4077 4.01442 20.6916 2.34791 -159.307 21.3575 178.751 -164.055 61.0758 -170.85 -0.214747 -15.3258 -35.2575 -66.8017 44.6559 -91.5872 8.50094 18.5394 -27.6786 0.420957 0.000575449 0.35866 -1.84354 6.28077 43.8622 -71.2863 -34.5749 93.1666 0.744367 -15.0994 22.205 0.58676 0.000331457 0.0646658 -55.5501 4.51785 100.003 -1.09202 19.9213 -11.6411 3.71374 -5.03522 -0.80041 1.18741 -2.99527 1.09324 -55.5556 -3.4911 80.3485 1.22718 16.1206 4.82623 -5.75226 -4.18565 1.00777 -0.367624 -2.07091 4.17886 
-58.7807 97.5523 54.2091 0.383929 -70.2469 -89.3795 -70.1915 0 88.8779 67.4649 70.1191 21.3922 4.00715 20.6887 2.31256 -159.383 21.3834 178.661 -163.733 61.0794 -171.324 -0.204915 -15.2946 -35.2128 -66.7096 44.6571 -91.6444 8.4693 18.4567 -27.6811 0.420957 0.000575449 0.35866 -1.85046 6.28995 43.9248 -71.3846 -34.571 93.1042 0.7736 -15.2193 22.1981 0.58676 0.000331457 0.0646658 -55.517 4.54293 100.019 -1.10266 19.9848 -11.7245 3.4724 -5.06959 -0.781621 1.17006 -3.03184 1.29994 -55.5646 -3.47999 80.3412 1.24086 16.098 4.88958 -5.6602 -4.15856 0.998114 -0.329832 -2.07744 3.94191 
-58.7848 97.56 54.2134 0.348929 -70.2439 -89.4141 -70.1915 0 88.8779 67.4896 70.1281 21.3813 3.98995 20.7005 2.29223 -159.411 21.3887 178.547 -163.359 61.0585 -171.782 -0.200233 -15.2799 -35.1902 -66.7474 44.6481 -91.6295 8.42748 18.4652 -27.6386 0.420957 0.000575449 0.35866 -1.85457 6.29396 43.9683 -71.4758 -34.5873 93.0423 0.832245 -15.384 22.2023 0.58676 0.000331457 0.0646658 -55.5021 4.5283 100.017 -1.08488 20.0178 -11.8459 3.17329 -5.07417 -0.756208 1.18937 -3.18802 1.62938 -55.588 -3.47084 80.316 1.27488 16.0531 5.20039 -5.5796 -4.02035 0.986367 -0.1785 -2.26226 3.09779 
-58.7828 97.567 54.2167 0.291593 -70.2424 -89.4782 -70.1915 0 88.8779 67.5011 70.1496 21.3737 3.96576 20.7227 2.28281 -159.405 21.379 178.416 -162.949 61.0196 -172.227 -0.203751 -15.2919 -35.2021 -66.8775 44.632 -91.5635 8.37839 18.5389 -27.5641 0.420957 0.000575449 0.35866 -1.85435 6.2902 43.9825 -71.5619 -34.6176 92.9808 0.911524 -15.5801 22.2146 0.58676 0.000331457 0.0646658 -55.5003 4.48552 100.001 -1.04685 20.0289 -11.9933 2.83306 -5.05868 -0.726167 1.23657 -3.42662 2.04398 -55.6215 -3.46299 80.2781 1.32397 15.9916 5.68655 -5.50685 -3.80354 0.973139 0.0423947 -2.57288 1.82294 
-58.7765 97.5734 54.2195 0.235552 -70.2424 -89.5428 -70.1915 0 88.8779 67.5039 70.1734 21.3663 3.94165 20.7452 2.28338 -159.382 21.356 178.295 -162.566 60.9687 -172.609 -0.213104 -15.3227 -35.2384 -67.0309 44.6159 -91.4863 8.33156 18.6376 -27.4825 0.420957 0.000575449 0.35866 -1.85107 6.28094 43.9759 -71.6395 -34.6446 92.9242 0.983668 -15.7696 22.224 0.58676 0.000331457 0.0646658 -55.5076 4.43611 99.9805 -1.00157 20.0249 -12.1155 2.48252 -5.07628 -0.697728 1.26558 -3.60309 2.40206 -55.6559 -3.45552 80.2396 1.37293 15.9317 6.20258 -5.4292 -3.58148 0.959217 0.259113 -2.8915 0.48689 
-58.7694 97.5786 54.2222 0.20456 -70.2436 -89.5786 -70.1915 0 88.8779 67.5027 70.1895 21.356 3.92469 20.7578 2.29307 -159.357 21.3215 178.208 -162.268 60.9124 -172.878 -0.223153 -15.3553 -35.279 -67.1387 44.607 -91.4378 8.29679 18.7211 -27.4187 0.420957 0.000575449 0.35866 -1.84711 6.27035 43.9652 -71.7055 -34.6508 92.877 1.02075 -15.9145 22.2193 0.58676 0.000331457 0.0646658 -55.5198 4.40136 99.9638 -0.961943 20.0129 -12.161 2.15259 -5.18011 -0.67711 1.22545 -3.57328 2.5616 -55.6818 -3.44765 80.2126 1.40545 15.8925 6.60334 -5.33394 -3.42748 0.945365 0.415122 -3.10113 -0.540127 
-58.7649 97.582 54.2255 0.208534 -70.2496 -89.5763 -70.1915 0 88.8779 67.4963 70.1972 21.333 3.9153 20.7561 2.32369 -159.323 21.2651 178.174 -162.078 60.8434 -172.982 -0.228672 -15.3726 -35.304 -67.1766 44.6083 -91.4346 8.28011 18.7848 -27.3804 0.420957 0.000575449 0.35866 -1.84484 6.26263 43.9669 -71.7564 -34.6281 92.8406 1.00524 -15.9959 22.1926 0.58676 0.000331457 0.0646658 -55.5492 4.37915 99.9477 -0.921168 19.9757 -12.0874 1.82259 -5.42352 -0.66635 1.07188 -3.21783 2.42505 -55.7 -3.43962 80.2015 1.41192 15.8833 6.87157 -5.19283 -3.3684 0.929411 0.509842 -3.15314 -1.19322 
-58.7641 97.5832 54.2301 0.233614 -70.2593 -89.5519 -70.1915 0 88.8779 67.483 70.2012 21.3019 3.9102 20.7461 2.37172 -159.275 21.1896 178.178 -161.96 60.7621 -172.96 -0.22741 -15.3669 -35.3069 -67.1834 44.6156 -91.4534 8.27522 18.8482 -27.3539 0.420957 0.000575449 0.35866 -1.84492 6.25926 43.9842 -71.7949 -34.5869 92.8126 0.955322 -16.037 22.1513 0.58676 0.000331457 0.0646658 -55.5936 4.36068 99.9295 -0.875507 19.9157 -11.9318 1.48569 -5.76512 -0.662021 0.846402 -2.64043 2.08845 -55.7143 -3.43178 80.1996 1.40216 15.893 7.07771 -5.02097 -3.3627 0.91173 0.576753 -3.11624 -1.65818 
-58.7652 97.5826 54.2356 0.267944 -70.2655 -89.5146 -70.1915 0 88.8779 67.4665 70.1994 21.2814 3.91094 20.7331 2.41315 -159.234 21.1165 178.185 -161.891 60.6864 -172.906 -0.222422 -15.3484 -35.2988 -67.1848 44.6257 -91.4744 8.27366 18.9067 -27.3324 0.420957 0.000575449 0.35866 -1.84609 6.25788 44.0087 -71.8262 -34.538 92.792 0.896572 -16.0631 22.1072 0.58676 0.000331457 0.0646658 -55.6269 4.35698 99.9188 -0.842739 19.8699 -11.7622 1.19356 -6.11588 -0.662142 0.622431 -2.03178 1.69969 -55.7204 -3.42356 80.202 1.38856 15.9107 7.20832 -4.87081 -3.38112 0.896888 0.6186 -3.05048 -1.94041 
-58.7668 97.5807 54.2404 0.299507 -70.2611 -89.4734 -70.1915 0 88.8779 67.4504 70.1895 21.2903 3.91903 20.7225 2.42403 -159.219 21.0675 178.165 -161.847 60.6343 -172.912 -0.216401 -15.3267 -35.2856 -67.2069 44.635 -91.4778 8.26697 18.956 -27.3092 0.420957 0.000575449 0.35866 -1.8478 6.25693 44.0394 -71.8556 -34.4921 92.7776 0.854521 -16.0994 22.0724 0.58676 0.000331457 0.0646658 -55.6228 4.37909 99.9252 -0.841323 19.8753 -11.6466 0.99788 -6.38678 -0.66471 0.463587 -1.58312 1.40588 -55.7138 -3.4144 80.2041 1.38372 15.9258 7.24989 -4.79472 -3.3944 0.889459 0.63602 -3.01578 -2.0454 
-58.7676 97.5782 54.2433 0.329862 -70.2401 -89.4212 -70.1915 0 88.8779 67.415 70.1662 21.3638 3.94607 20.7155 2.3925 -159.246 21.0511 178.094 -161.824 60.612 -173.04 -0.212029 -15.3114 -35.2733 -67.2623 44.6419 -91.4555 8.2471 18.9898 -27.2788 0.420957 0.000575449 0.35866 -1.84953 6.25487 44.0757 -71.8874 -34.4515 92.7722 0.836223 -16.1601 22.0485 0.58676 0.000331457 0.0646658 -55.5569 4.44983 99.9632 -0.896211 19.9704 -11.6052 0.953324 -6.55481 -0.672455 0.385909 -1.34878 1.22763 -55.6853 -3.40374 80.2054 1.39318 15.9421 7.13602 -4.82915 -3.40664 0.893292 0.608871 -3.02091 -1.83614 
